# xmcd
#
# Track frame offsets:
#	150
#	13049
#	25580
#	41689
#	55742
#	74546
#	88271
#	101217
#	112892
#	130318
#	141321
#	157571
#	174028
#	189228
#	203552
#	223057
#	244348
#	260708
#	275857
#	288501
#	301564
#	318470
#	333425
#
# Disc length: 4640 seconds
#
# Revision: 0
# Processed by: cddbd v1.5.1PL0 Copyright (c) Steve Scherf et al.
# Submitted via: dBpowerAMP V4.0
#
DISCID=4d121e17
DTITLE=Varios - Viola Cbocla
DYEAR=1900
DGENRE=Sertanejo
TTITLE0=Varios
TTITLE1=Varios
TTITLE2=Varios
TTITLE3=Varios
TTITLE4=Varios
TTITLE5=Varios
TTITLE6=Varios
TTITLE7=Varios
TTITLE8=Varios
TTITLE9=Varios
TTITLE10=Varios
TTITLE11=Varios
TTITLE12=Varios
TTITLE13=Varios
TTITLE14=Varios
TTITLE15=Varios
TTITLE16=Varios
TTITLE17=Varios
TTITLE18=Varios
TTITLE19=Varios
TTITLE20=Varios
TTITLE21=Varios
TTITLE22=Varios
EXTD=Viola Cabocla
EXTT0=
EXTT1=
EXTT2=
EXTT3=
EXTT4=
EXTT5=
EXTT6=
EXTT7=
EXTT8=
EXTT9=
EXTT10=
EXTT11=
EXTT12=
EXTT13=
EXTT14=
EXTT15=
EXTT16=
EXTT17=
EXTT18=
EXTT19=
EXTT20=
EXTT21=
EXTT22=
PLAYORDER=
